<?xml version="1.0" standalone="no"?>
<!DOCTYPE svg PUBLIC "-//W3C//DTD SVG 1.1//EN" "http://www.w3.org/Graphics/SVG/1.1/DTD/svg11.dtd">
<svg xmlns="http://www.w3.org/2000/svg" xmlns:xlink="http://www.w3.org/1999/xlink" id="katman_1" data-name="katman 1" viewBox="0 0 393.65 99.91" width="393.6499938964844" height="99.91000366210938"><defs><style>.cls-1{fill:url(#Adsız_degrade_5);}</style><linearGradient id="Adsız_degrade_5" x1="48.94" y1="17.05" x2="48.94" y2="91.98" gradientUnits="userSpaceOnUse"><stop offset="0" stop-color="#f29100"/><stop offset="1" stop-color="#e85028"/></linearGradient></defs><path d="M124.31,60.54a11.8,11.8,0,0,1-1.13,5.31,9.7,9.7,0,0,1-3.29,3.74,15.49,15.49,0,0,1-5.23,2.18,31,31,0,0,1-6.91.71q-8.49,0-13.16-2.39V32.6a20.66,20.66,0,0,1,5.34-1.73,37,37,0,0,1,7.32-.66,26.18,26.18,0,0,1,7,.84,14.39,14.39,0,0,1,4.93,2.33,9.45,9.45,0,0,1,3.85,7.76,8.93,8.93,0,0,1-.68,3.58,9.24,9.24,0,0,1-1.75,2.66,10.67,10.67,0,0,1-2.35,1.82,9.77,9.77,0,0,1-2.52,1v.12a12.77,12.77,0,0,1,2.9,1.2,11.34,11.34,0,0,1,2.78,2.15,11.55,11.55,0,0,1,2.06,3A9,9,0,0,1,124.31,60.54ZM113.87,41.79q0-6.13-6.54-6.14a17.58,17.58,0,0,0-1.89.08,7.38,7.38,0,0,0-1.66.39V48.24h1.93c3,0,5.16-.51,6.36-1.55S113.87,44,113.87,41.79Zm.72,18.39a7.11,7.11,0,0,0-2-5.46q-2-1.81-6.92-1.82h-1.92V66.09a7.35,7.35,0,0,0,1.62.45,12.71,12.71,0,0,0,2.09.15,8.31,8.31,0,0,0,5.25-1.46Q114.59,63.76,114.59,60.18Z"/><path d="M152.86,70.09a19.43,19.43,0,0,1-5.22,1.73,36.77,36.77,0,0,1-7.38.66q-14.08,0-14.09-10.15a8.92,8.92,0,0,1,1.44-5.19,10.66,10.66,0,0,1,3.91-3.4,21.33,21.33,0,0,1,5.73-2,63.1,63.1,0,0,1,6.89-1.05V49.2c0-1.67-.51-2.81-1.55-3.4a8.17,8.17,0,0,0-4.12-.9,16.73,16.73,0,0,0-4.56.63,24.61,24.61,0,0,0-3.8,1.34l-2-5.31A46.34,46.34,0,0,1,132.86,40a27.43,27.43,0,0,1,7.34-.86,19.46,19.46,0,0,1,5.05.62,10.91,10.91,0,0,1,4,2,9.13,9.13,0,0,1,2.65,3.62,14,14,0,0,1,1,5.52ZM144.14,55a25.72,25.72,0,0,0-3.82.6,9.29,9.29,0,0,0-2.92,1.19,5.23,5.23,0,0,0-1.85,2,6.76,6.76,0,0,0-.66,3.16,5.06,5.06,0,0,0,1.52,4.12,6.63,6.63,0,0,0,4.33,1.26,7.57,7.57,0,0,0,3.4-.66Z"/><path d="M168.74,84.72H159l5.13-12.84L153.64,39.71h9.85l4.42,18.62c.15.68.28,1.34.38,2s.17,1.18.21,1.61.06,1.06.06,1.5h.12q.06-.66.18-1.5c.08-.43.17-1,.27-1.61a15.77,15.77,0,0,1,.45-2l4.89-18.62h8.72Z"/><path d="M223.85,71.88,213.7,51.53h-.12V71.88H204V30.81h9.61V49.32h.12L224,30.81h9.91L222.29,49.68l12.42,22.2Z"/><path d="M263.31,70a23.27,23.27,0,0,1-5.58,1.82,39.82,39.82,0,0,1-7.85.68q-6.87,0-10.18-2.66t-3.32-8.5V39.71h9.32V62a4.58,4.58,0,0,0,1,3,4.17,4.17,0,0,0,3.41,1.25,8.4,8.4,0,0,0,3.88-.77V39.71h9.31Z"/><path d="M265.94,71.88l10.92-26.14H267v-6h21.37L278,65.85h10.62v6Z"/><path d="M319.79,72.12A15.22,15.22,0,0,1,318.74,78a10.91,10.91,0,0,1-2.92,4.15,12.28,12.28,0,0,1-4.45,2.45,18.76,18.76,0,0,1-5.67.81,34,34,0,0,1-6.93-.66,17.77,17.77,0,0,1-5.07-1.73l2.39-6a14.7,14.7,0,0,0,3.58,1.37,17.3,17.3,0,0,0,4.36.54q3.69,0,5.19-1.61a6.29,6.29,0,0,0,1.49-4.42V71.11a7.29,7.29,0,0,1-2.21.75,19,19,0,0,1-3.4.26,13,13,0,0,1-5.31-1.07A11.81,11.81,0,0,1,295.58,68a14.16,14.16,0,0,1-2.75-4.89,20,20,0,0,1-1-6.48,23.51,23.51,0,0,1,1-7.25A14.88,14.88,0,0,1,296,43.82a13.6,13.6,0,0,1,5.16-3.49,19.75,19.75,0,0,1,7.22-1.22,30.29,30.29,0,0,1,6.72.68,17.07,17.07,0,0,1,4.69,1.71ZM310.71,45a6.56,6.56,0,0,0-2.92-.54,5.45,5.45,0,0,0-5.17,2.9Q301,50.28,301,56.06c0,3.67.51,6.37,1.52,8.12a5.37,5.37,0,0,0,5.05,2.63,5.75,5.75,0,0,0,3.1-.78Z"/><path d="M350.18,70a23.51,23.51,0,0,1-5.59,1.82,39.68,39.68,0,0,1-7.85.68q-6.86,0-10.18-2.66t-3.31-8.5V39.71h9.31V62a4.59,4.59,0,0,0,1,3,4.16,4.16,0,0,0,3.4,1.25,8.37,8.37,0,0,0,3.88-.77V39.71h9.32Z"/><path d="M372.86,71.88V49.38a6.41,6.41,0,0,0-.21-1.64,3.66,3.66,0,0,0-.74-1.44,3.84,3.84,0,0,0-1.47-1,6.07,6.07,0,0,0-2.35-.39,11.28,11.28,0,0,0-2.24.18,12.23,12.23,0,0,0-1.7.48V71.88h-9.32V41.5a27.56,27.56,0,0,1,5.82-1.74,41.11,41.11,0,0,1,7.67-.65,23.67,23.67,0,0,1,6.48.77A11.87,11.87,0,0,1,379.1,42a7.86,7.86,0,0,1,2.36,3.23,11.1,11.1,0,0,1,.72,4.06V71.88Z"/><circle class="cls-1" cx="48.94" cy="49.96" r="37.46"/><path d="M80.89,60.67C52.56,58.38,45.82,43.48,45.82,43.48,67.49,63.57,90.31,57.15,90.31,57.15,84.7,57.5,67,42.72,67,42.72l7.37,2.94C73,45,64.33,39,64.33,39c-8.62-6.58-9.56-6.13-13.78-6.88-3-.53-3.23-.43-4.45-1.1-3.56-2,2.85-1.61,3.89-1.53a67.68,67.68,0,0,0,7.7.16c-8.09-2.42-8.78-5.22-8.78-5.22,2.82-3.14,12.74-1.07,12.74-1.07-1.44-5.78-11.53-5.43-11.53-5.43-4.43-3.38-9.38-3.64-13.66-1S25.64,27.43,25.64,27.43l1.63-.92c1.63-.93,2.3-.8,2.3-.8S27.75,33,27.31,35.44c-2.65,14.69,7.94,24.17,7.94,24.17s0-1.21-.34-3.79.45-1.92.55-1.53C36.43,58,42.55,65,42.55,65l-.58-2c-.57-2-.36-2.43-.36-2.43A27.33,27.33,0,0,1,47.53,65c2.74,2.83,2.4,4.5,1.57,5.8-1.6,2.52-8.81,7.7-8.81,7.7a17.8,17.8,0,0,0-6,.08c-2.89.62-4.4,3.11-3.93,2.7a9.52,9.52,0,0,1,3.38-.76c2-.14,6.22-.07,7.9,0a13.82,13.82,0,0,1,3.87.79s-1.17-1.76-2.77-1.74-.45-.85-.45-.85l9.9-7.6S52.15,73,52.59,73s.82-.88.81-1.55c0-1.56-.21-5.49.06-6S54,65.08,57,67,59,70.57,59,70.57s-4.75,8.05-5.06,8.17a16.11,16.11,0,0,1-2.68,0c-3.81.09-4.44,1.9-4.44,1.9,1.58-.65,8.44-.45,10.16-.41a2.81,2.81,0,0,1,2.32.92,3.06,3.06,0,0,0-2.78-2c-1.1-.13-.88-.47-.88-.47s5.28-8,5.51-8.51S63,71.48,63,71.48c2.08-1.23.3-6.51.3-6.51,1.61.34,6,3.36,6,3.36a17.73,17.73,0,0,0-1.41-4.12c7.35,3.61,13.75,15,13.75,15,3-2.85,2.13-11.62,2.13-11.62l5.7,2.08C85.11,61.7,84,60.92,80.89,60.67ZM41.14,20.88a1,1,0,0,1-1.1.28s-.9-.52.29-1.38a6.8,6.8,0,0,1,5.55-1.38s.53,1.36-2.46,2.3C42.3,21.05,41.68,20.38,41.14,20.88Z"/></svg>